<?xml version="1.0" encoding="iso-8859-1"?>
<!-- Uploaded to: SVG Repo, www.svgrepo.com, Generator: SVG Repo Mixer Tools -->
<svg height="800px" width="800px" version="1.1" id="Capa_1" xmlns="http://www.w3.org/2000/svg" xmlns:xlink="http://www.w3.org/1999/xlink" 
	 viewBox="0 0 32.001 32.001" xml:space="preserve">
<g>
	<g id="map_x5F_pin_x5F_stroke">
		<g>
			<path style="fill:#030104;" d="M15.997,4c1.605,0,3.113,0.625,4.246,1.76C21.375,6.891,22,8.398,22,10s-0.625,3.109-1.73,4.213
				c-0.168,0.166-2.238,2.225-4.273,5.441c-2.02-3.211-4.082-5.262-4.238-5.414C10.625,13.109,10,11.602,10,10
				s0.625-3.109,1.758-4.242S14.314,4,15.997,4 M15.997,0c-2.555,0-5.113,0.977-7.066,2.93c-3.906,3.904-3.906,10.236,0,14.141
				c0,0,7.066,6.93,7.066,14.93c0-8,7.074-14.93,7.074-14.93c3.906-3.904,3.906-10.236,0-14.141C21.118,0.977,18.559,0,15.997,0
				L15.997,0z"/>
			<path style="fill:#030104;" d="M18,10c0,1.105-0.895,2-2.004,2C14.811,12,14,11.105,14,10s0.811-2,1.996-2
				C17.105,8,18,8.895,18,10z"/>
		</g>
	</g>
</g>
</svg>