<?xml version="1.0" encoding="utf-8" ?>
<svg baseProfile="tiny" height="100%" shape-rendering="crispEdges" version="1.2" width="100%" xmlns="http://www.w3.org/2000/svg" xmlns:ev="http://www.w3.org/2001/xml-events" xmlns:xlink="http://www.w3.org/1999/xlink"><defs /><g><path d="M 41.942 68.98 L 37.584 74.21900000000001 L 33.91 80.0 L 31.114 86.269 L 31.114 86.269 L 23.136000000000003 104.156 L 22.448 128.023 L 30.39 146.018 L 30.39 146.018 L 32.226 150.179 L 34.409 154.115 L 36.891 157.808 Z" fill="none" stroke="black" stroke-width="2" /><path d="M 176.5 67.5 L 171.555 60.218 L 165.893 53.421 L 158.893 48.348 L 158.893 48.348 L 125.487 24.137 L 69.766 35.53 L 41.94200000000001 68.98 Z" fill="none" stroke="black" stroke-width="2" /><path d="M 36.891 157.808 L 64.31 198.601 L 128.306 209.766 L 166.5 167.5 Z" fill="none" stroke="black" stroke-width="2" /><path d="M 42.964 70.031 L 53.818 82.98100000000001 L 72.618 71.863 L 80.894 95.184 L 80.894 95.184 L 84.384 105.02 L 81.92200000000001 122.488 L 78.67500000000001 132.286 L 78.67500000000001 132.286 L 70.54500000000002 156.818 L 52.74600000000001 144.905 L 38.04100000000001 156.835 L 38.04100000000001 156.835 L 36.89100000000001 157.80800000000002 Z" fill="none" stroke="black" stroke-width="2" /><path d="M 166.5 167.5 L 184.026 146.046 L 190.851 129.77100000000002 L 189.97 106.952 L 189.97 106.952 L 189.424 92.814 L 185.394 80.666 L 176.5 67.5 Z" fill="none" stroke="black" stroke-width="2" /><path d="M 176.5 67.5 L 162.824 84.239 L 142.542 70.7 L 124.12700000000001 82.523 L 124.12700000000001 82.523 L 101.58800000000001 96.993 L 100.88000000000001 125.77799999999999 L 119.06200000000001 142.128 L 119.06200000000001 142.128 L 132.572 154.27599999999998 L 154.293 151.112 L 165.864 166.80499999999998 L 165.864 166.80499999999998 L 166.5 167.50099999999998 Z" fill="none" stroke="black" stroke-width="2" /><path d="M 13.245 227.755 L 7.16 152.655 L 2.124 76.843 L 1.5 1.5 Z" fill="none" stroke="black" stroke-width="2" /><path d="M 224.647 215.68 L 188.164 223.417 L 151.005 227.398 L 113.922 231.36700000000002 L 113.922 231.36700000000002 L 103.26899999999999 232.507 L 92.589 233.64900000000003 L 81.876 233.579 L 81.876 233.579 L 73.447 233.524 L 65.043 232.719 L 56.652 231.91500000000002 L 56.652 231.91500000000002 L 42.183 230.52800000000002 L 27.714000000000002 229.14100000000002 L 13.245000000000005 227.75500000000002 Z" fill="none" stroke="black" stroke-width="2" /><path d="M 216.777 2.107 L 231.219 72.069 L 227.96599999999998 144.319 L 224.647 215.68 Z" fill="none" stroke="black" stroke-width="2" /><path d="M 1.562 1.876 L 73.301 1.9529999999999998 L 145.03900000000002 2.03 L 216.77800000000002 2.1069999999999998 Z" fill="none" stroke="black" stroke-width="2" /></g></svg>