<?xml version="1.0" encoding="utf-8" ?>
<svg baseProfile="tiny" height="100%" shape-rendering="crispEdges" version="1.2" width="100%" xmlns="http://www.w3.org/2000/svg" xmlns:ev="http://www.w3.org/2001/xml-events" xmlns:xlink="http://www.w3.org/1999/xlink"><defs /><g><path d="M 123.56 4.52 L 122.883 4.443 L 122.26 4.685 L 121.642 4.885999999999999 L 121.642 4.885999999999999 L 112.018 8.017 L 102.353 11.017 L 92.716 14.107 L 92.716 14.107 L 89.645 15.091999999999999 L 86.57799999999999 16.095 L 83.485 17.016 L 83.485 17.016 L 82.651 17.264 L 81.821 17.589 L 81.08 18.08 Z" fill="none" stroke="black" stroke-width="2" /><path d="M 55.64 100.04 L 53.526 101.43900000000001 L 51.043 101.80000000000001 L 48.673 102.415 L 48.673 102.415 L 40.709 104.48 L 32.763000000000005 106.613 L 24.8 108.682 L 24.8 108.682 L 21.279 109.59700000000001 L 17.772000000000002 110.56700000000001 L 14.24 111.441 Z" fill="none" stroke="black" stroke-width="2" /><path d="M 41.72 12.44 L 41.494 13.482 L 41.992 14.366999999999999 L 42.458999999999996 15.189 L 42.458999999999996 15.189 L 44.123 18.116 L 45.593999999999994 21.145 L 47.257999999999996 24.07 L 47.257999999999996 24.07 L 47.910999999999994 25.219 L 48.288999999999994 26.445 L 48.727999999999994 27.698 L 48.727999999999994 27.698 L 49.05 27.819 L 49.401999999999994 27.996 L 49.67699999999999 28.055 L 49.67699999999999 28.055 L 52.818999999999996 35.508 L 57.419999999999995 42.093 L 60.397999999999996 49.482 L 60.397999999999996 49.482 L 60.63099999999999 49.897999999999996 L 61.13999999999999 49.881 L 61.462999999999994 50.096 L 61.462999999999994 50.096 L 64.383 57.20399999999999 L 68.853 63.498999999999995 L 71.67599999999999 70.603 L 71.67599999999999 70.603 L 71.91099999999999 71.018 L 72.41999999999999 71.0 L 72.68099999999998 71.175 L 72.68099999999998 71.175 L 75.91299999999998 78.622 L 80.39799999999998 85.322 L 83.54099999999998 92.69 L 83.54099999999998 92.69 L 83.81499999999998 93.05 L 84.32399999999998 93.033 L 84.74099999999999 93.368 L 84.74099999999999 93.368 L 85.39899999999999 96.26899999999999 L 87.17499999999998 98.713 L 88.53099999999999 101.35499999999999 L 88.53099999999999 101.35499999999999 L 90.47699999999999 105.14299999999999 L 92.523 108.87899999999999 L 94.52499999999999 112.63799999999999 L 94.52499999999999 112.63799999999999 L 94.92899999999999 113.39699999999999 L 94.93199999999999 114.261 L 95.24499999999999 115.04599999999999 L 95.24499999999999 115.04599999999999 L 95.63 115.351 L 96.13099999999999 115.416 L 96.58399999999999 115.66399999999999 L 96.58399999999999 115.66399999999999 L 97.71799999999999 119.43599999999999 L 99.93999999999998 122.71599999999998 L 101.75699999999999 126.18199999999999 L 101.75699999999999 126.18199999999999 L 104.66499999999999 131.72799999999998 L 107.64599999999999 137.238 L 110.59599999999999 142.76299999999998 L 110.59599999999999 142.76299999999998 L 111.725 144.878 L 112.81499999999998 147.01899999999998 L 113.99999999999999 149.09799999999998 L 113.99999999999999 149.09799999999998 L 114.71399999999998 150.35 L 115.02699999999999 151.57399999999998 L 114.91999999999999 152.96099999999998 Z" fill="none" stroke="black" stroke-width="2" /><path d="M 157.88 89.96 L 157.953 89.467 L 157.772 89.053 L 157.524 88.63799999999999 L 157.524 88.63799999999999 L 155.63400000000001 85.46699999999998 L 153.821 82.25099999999999 L 151.991 79.04499999999999 L 151.991 79.04499999999999 L 151.46300000000002 78.11899999999999 L 151.014 77.16899999999998 L 150.76700000000002 76.26599999999999 L 150.76700000000002 76.26599999999999 L 150.36900000000003 75.78299999999999 L 149.86 75.8 L 149.52400000000003 75.576 L 149.52400000000003 75.576 L 144.85200000000003 77.38199999999999 L 139.96400000000003 78.297 L 135.19500000000002 79.61999999999999 L 135.19500000000002 79.61999999999999 L 129.61400000000003 81.16799999999999 L 123.98600000000002 82.54299999999999 L 118.39800000000002 84.07 L 118.39800000000002 84.07 L 117.55200000000002 84.30099999999999 L 116.80600000000003 84.73299999999999 L 116.00100000000002 85.041 Z" fill="none" stroke="black" stroke-width="2" /><path d="M 136.52 53.0 L 133.89000000000001 54.569 L 130.875 54.948 L 128.0 55.761 L 128.0 55.761 L 121.1 57.713 L 114.176 59.579 L 107.245 61.419000000000004 L 107.245 61.419000000000004 L 106.232 61.688 L 105.25200000000001 62.133 L 104.36 62.720000000000006 Z" fill="none" stroke="black" stroke-width="2" /><path d="M 125.0 33.44 L 122.803 34.839999999999996 L 120.233 35.083999999999996 L 117.795 35.701 L 117.795 35.701 L 110.685 37.5 L 103.583 39.335 L 96.443 41.015 L 96.443 41.015 L 95.485 41.24 L 94.673 41.866 L 93.79899999999999 42.32 Z" fill="none" stroke="black" stroke-width="2" /><path d="M 92.48 41.72 L 89.857 42.992 L 86.976 43.384 L 84.196 44.106 L 84.196 44.106 L 77.689 45.796 L 71.151 47.364000000000004 L 64.63499999999999 49.023 L 64.63499999999999 49.023 L 63.56699999999999 49.295 L 62.60499999999999 49.754000000000005 L 61.63899999999999 50.24 Z" fill="none" stroke="black" stroke-width="2" /><path d="M 127.04 108.2 L 124.908 109.366 L 122.49900000000001 109.598 L 120.19200000000001 110.083 L 120.19200000000001 110.083 L 113.42800000000001 111.507 L 106.70200000000001 113.102 L 99.92200000000001 114.451 L 99.92200000000001 114.451 L 98.772 114.67999999999999 L 97.66900000000001 115.098 L 96.68 115.75999999999999 Z" fill="none" stroke="black" stroke-width="2" /><path d="M 114.92 84.56 L 114.144 81.9 L 112.705 79.549 L 111.433 77.124 L 111.433 77.124 L 109.272 73.00399999999999 L 107.188 68.845 L 104.983 64.74799999999999 L 104.983 64.74799999999999 L 104.45400000000001 63.76399999999999 L 104.617 62.36099999999999 L 103.221 62.08099999999999 L 103.221 62.08099999999999 L 102.283 58.85599999999999 L 100.49600000000001 56.12999999999999 L 99.04400000000001 53.258999999999986 L 99.04400000000001 53.258999999999986 L 97.61600000000001 50.43499999999999 L 96.177 47.609999999999985 L 94.64200000000001 44.83999999999999 L 94.64200000000001 44.83999999999999 L 94.22600000000001 44.08899999999999 L 94.117 43.22799999999999 L 93.80600000000001 42.43899999999999 L 93.80600000000001 42.43899999999999 L 93.57300000000001 41.91299999999999 L 92.94100000000002 42.059999999999995 L 92.561 41.681999999999995 L 92.561 41.681999999999995 L 91.62400000000001 38.163 L 89.509 35.145999999999994 L 87.902 31.889999999999993 L 87.902 31.889999999999993 L 86.09 28.21699999999999 L 84.116 24.623999999999995 L 82.257 20.972999999999992 L 82.257 20.972999999999992 L 81.756 19.98899999999999 L 81.378 18.970999999999993 L 80.97500000000001 17.987999999999992 L 80.97500000000001 17.987999999999992 L 80.48 17.64999999999999 L 79.97300000000001 17.638999999999992 L 79.52600000000001 17.967999999999993 L 79.52600000000001 17.967999999999993 L 78.58500000000001 18.661999999999992 L 77.486 18.939999999999994 L 76.40200000000002 19.285999999999994 L 76.40200000000002 19.285999999999994 L 68.60500000000002 21.773999999999994 L 60.80600000000001 24.258999999999993 L 52.99900000000002 26.716999999999995 L 52.99900000000002 26.716999999999995 L 51.89400000000002 27.064999999999994 L 50.89200000000002 27.619999999999994 L 49.88000000000002 28.160999999999994 Z" fill="none" stroke="black" stroke-width="2" /><path d="M 103.04 62.12 L 99.694 63.921 L 95.93900000000001 64.423 L 92.35600000000001 65.468 L 92.35600000000001 65.468 L 86.70100000000001 67.117 L 80.98400000000001 68.543 L 75.316 70.147 L 75.316 70.147 L 74.422 70.4 L 73.668 70.857 L 72.92 71.36 Z" fill="none" stroke="black" stroke-width="2" /><path d="M 137.84 127.88 L 135.154 122.76299999999999 L 132.564 117.59599999999999 L 129.804 112.518 L 129.804 112.518 L 129.184 111.378 L 128.63 110.20400000000001 L 128.399 108.905 L 128.399 108.905 L 128.133 108.393 L 127.501 108.539 L 127.133 108.174 L 127.133 108.174 L 126.145 104.662 L 124.11699999999999 101.60300000000001 L 122.46799999999999 98.367 L 122.46799999999999 98.367 L 120.722 94.94 L 119.014 91.492 L 117.10199999999999 88.14800000000001 L 117.10199999999999 88.14800000000001 L 116.58099999999999 87.23700000000001 L 116.326 86.17300000000002 L 116.00099999999999 85.13700000000001 L 116.00099999999999 85.13700000000001 L 115.53699999999999 84.79300000000002 L 115.06799999999998 84.52600000000001 L 114.43799999999999 84.79600000000002 L 114.43799999999999 84.79600000000002 L 110.81599999999999 86.35300000000002 L 106.92799999999998 86.99100000000001 L 103.15599999999999 88.02800000000002 L 103.15599999999999 88.02800000000002 L 97.97399999999999 89.45300000000002 L 92.77199999999999 90.80700000000002 L 87.56299999999999 92.13600000000002 L 87.56299999999999 92.13600000000002 L 86.59599999999999 92.38300000000002 L 85.69699999999999 92.87100000000002 L 84.79899999999999 93.32100000000003 Z" fill="none" stroke="black" stroke-width="2" /><path d="M 71.6 70.76 L 68.67399999999999 72.21300000000001 L 65.46199999999999 72.754 L 62.35799999999999 73.632 L 62.35799999999999 73.632 L 57.24999999999999 75.07600000000001 L 52.11299999999999 76.41300000000001 L 46.99899999999999 77.837 L 46.99899999999999 77.837 L 46.10799999999999 78.08500000000001 L 45.31899999999999 78.558 L 44.46799999999999 78.93900000000001 L 44.46799999999999 78.93900000000001 L 43.91999999999999 78.82300000000001 L 43.45299999999999 78.48700000000001 L 42.93899999999999 78.325 L 42.93899999999999 78.325 L 42.52799999999999 76.11200000000001 L 41.22999999999999 74.312 L 40.129999999999995 72.458 L 40.129999999999995 72.458 L 37.714999999999996 68.386 L 35.43899999999999 64.234 L 32.974 60.192 L 32.974 60.192 L 32.562 59.516 L 32.379 58.713 L 32.205 57.876 L 32.205 57.876 L 31.845 57.407999999999994 L 31.205 57.349999999999994 L 30.683 57.074 L 30.683 57.074 L 26.548000000000002 58.977 L 22.043 59.58 L 17.709 60.76 L 17.709 60.76 L 12.657 62.135999999999996 L 7.552 63.329 L 2.478999999999999 64.63499999999999 L 2.478999999999999 64.63499999999999 L 2.3289999999999993 64.67399999999999 L 2.1599999999999993 64.63999999999999 L 1.9999999999999991 64.63999999999999 Z" fill="none" stroke="black" stroke-width="2" /><path d="M 48.56 27.8 L 44.933 29.618000000000002 L 40.977000000000004 30.491 L 37.154 31.743000000000002 L 37.154 31.743000000000002 L 32.454 33.282000000000004 L 27.752000000000002 34.823 L 23.006000000000004 36.222 L 23.006000000000004 36.222 L 22.075000000000003 36.497 L 21.209000000000003 37.02 L 20.359000000000005 37.52 Z" fill="none" stroke="black" stroke-width="2" /><path d="M 60.32 49.64 L 57.269 51.238 L 53.863 51.65 L 50.594 52.498 L 50.594 52.498 L 45.411 53.842999999999996 L 40.222 55.168 L 35.004000000000005 56.379 L 35.004000000000005 56.379 L 33.981 56.616 L 33.031000000000006 57.134 L 32.120000000000005 57.68 Z" fill="none" stroke="black" stroke-width="2" /><path d="M 95.12 115.16 L 92.903 116.328 L 90.418 116.521 L 88.036 117.062 L 88.036 117.062 L 81.809 118.478 L 75.557 119.786 L 69.31700000000001 121.148 L 69.31700000000001 121.148 L 68.956 121.22699999999999 L 68.634 121.475 L 68.24000000000001 121.39999999999999 Z" fill="none" stroke="black" stroke-width="2" /><path d="M 83.36 92.84 L 81.033 94.113 L 78.43599999999999 94.559 L 75.917 95.23 L 75.917 95.23 L 70.44200000000001 96.687 L 64.955 98.104 L 59.481 99.565 L 59.481 99.565 L 58.628 99.79299999999999 L 57.858000000000004 100.231 L 57.08 100.64 Z" fill="none" stroke="black" stroke-width="2" /><path d="M 42.8 78.44 L 40.644999999999996 79.979 L 38.031 80.238 L 35.589999999999996 80.926 L 35.589999999999996 80.926 L 30.883999999999997 82.254 L 26.147999999999996 83.477 L 21.439999999999998 84.802 L 21.439999999999998 84.802 L 20.650999999999996 85.024 L 19.849999999999998 85.06200000000001 L 19.038999999999998 85.039 Z" fill="none" stroke="black" stroke-width="2" /><path d="M 152.12 103.34 L 149.41400000000002 103.49300000000001 L 146.832 104.304 L 144.202 104.851 L 144.202 104.851 L 139.793 105.768 L 135.399 106.755 L 131.0 107.72 L 131.0 107.72 L 130.057 107.92699999999999 L 129.195 108.33 L 128.36 108.8 Z" fill="none" stroke="black" stroke-width="2" /><path d="M 117.08 16.4 L 116.92699999999999 17.823999999999998 L 117.374 19.017 L 118.122 20.262999999999998 L 118.122 20.262999999999998 L 120.189 23.701999999999998 L 122.143 27.209999999999997 L 124.152 30.685 L 124.152 30.685 L 124.622 31.499 L 125.043 32.352 L 125.144 33.318 L 125.144 33.318 L 125.62400000000001 33.594 L 126.19900000000001 33.714999999999996 L 126.724 34.065999999999995 L 126.724 34.065999999999995 L 127.22800000000001 36.8 L 129.01 38.956999999999994 L 130.293 41.352999999999994 L 130.293 41.352999999999994 L 132.01000000000002 44.559 L 133.969 47.62899999999999 L 135.691 50.833999999999996 L 135.691 50.833999999999996 L 136.04500000000002 51.492999999999995 L 136.189 52.221 L 136.486 52.846999999999994 L 136.486 52.846999999999994 L 136.904 53.324999999999996 L 137.589 53.25299999999999 L 138.023 53.803999999999995 L 138.023 53.803999999999995 L 138.409 56.129999999999995 L 139.936 58.01199999999999 L 141.083 60.07899999999999 L 141.083 60.07899999999999 L 143.472 64.38799999999999 L 146.005 68.615 L 148.428 72.905 L 148.428 72.905 L 148.892 73.726 L 149.114 74.57300000000001 L 149.35999999999999 75.441 Z" fill="none" stroke="black" stroke-width="2" /><path d="M 44.48 79.04 L 44.712999999999994 81.024 L 45.958 82.54400000000001 L 46.894999999999996 84.191 L 46.894999999999996 84.191 L 49.224999999999994 88.288 L 51.602999999999994 92.358 L 53.974 96.431 L 53.974 96.431 L 54.628 97.55499999999999 L 55.223 98.69 L 55.57899999999999 99.854 L 55.57899999999999 99.854 L 56.023999999999994 100.363 L 56.708999999999996 100.292 L 57.157 100.859 L 57.157 100.859 L 57.44199999999999 103.08099999999999 L 58.934 104.874 L 59.986 106.866 L 59.986 106.866 L 60.418 107.684 L 60.866 108.517 L 61.413 109.27 L 61.413 109.27 L 61.748 109.72999999999999 L 61.775999999999996 110.205 L 61.76 110.72 Z" fill="none" stroke="black" stroke-width="2" /><path d="M 12.68 24.92 L 14.265 28.037000000000003 L 16.159 30.978 L 17.865 34.026 L 17.865 34.026 L 18.41 34.999 L 18.851 35.982000000000006 L 19.198999999999998 37.050000000000004 L 19.198999999999998 37.050000000000004 L 19.522 37.196000000000005 L 19.889999999999997 37.339000000000006 L 20.214999999999996 37.43000000000001 L 20.214999999999996 37.43000000000001 L 21.564999999999998 40.99600000000001 L 23.744999999999997 44.00800000000001 L 25.531999999999996 47.233000000000004 L 25.531999999999996 47.233000000000004 L 26.894999999999996 49.693000000000005 L 28.297999999999995 52.133 L 29.735999999999997 54.550000000000004 L 29.735999999999997 54.550000000000004 L 30.188999999999997 55.312000000000005 L 30.33 56.142 L 30.560999999999996 56.959 Z" fill="none" stroke="black" stroke-width="2" /><path d="M 168.68 71.36 L 166.363 71.118 L 164.25400000000002 72.029 L 162.082 72.568 L 162.082 72.568 L 159.351 73.245 L 156.647 74.035 L 153.912 74.685 L 153.912 74.685 L 152.731 74.96600000000001 L 151.745 75.56400000000001 L 150.68 76.04 Z" fill="none" stroke="black" stroke-width="2" /><path d="M 73.52 2.0 L 73.30199999999999 3.584 L 73.84599999999999 4.941 L 74.574 6.334 L 74.574 6.334 L 76.521 10.059 L 78.692 13.674 L 80.24 17.6 Z" fill="none" stroke="black" stroke-width="2" /><path d="M 151.64 49.64 L 150.32299999999998 49.480000000000004 L 149.14 50.064 L 147.927 50.388 L 147.927 50.388 L 145.481 51.041 L 143.03199999999998 51.693999999999996 L 140.599 52.397 L 140.599 52.397 L 139.65699999999998 52.669 L 138.816 53.147999999999996 L 137.95999999999998 53.601 Z" fill="none" stroke="black" stroke-width="2" /><path d="M 140.72 30.32 L 138.336 30.222 L 136.171 31.255 L 133.886 31.674 L 133.886 31.674 L 132.597 31.91 L 131.332 32.326 L 130.042 32.611 L 130.042 32.611 L 128.875 32.869 L 127.77 33.312999999999995 L 126.8 34.04 Z" fill="none" stroke="black" stroke-width="2" /><path d="M 19.04 37.16 L 15.299 39.037 L 11.209999999999999 39.91 L 7.282 41.245999999999995 L 7.282 41.245999999999995 L 6.721 41.437 L 6.159 41.312 L 5.6 41.35999999999999 Z" fill="none" stroke="black" stroke-width="2" /></g></svg>