<?xml version="1.0" encoding="utf-8" ?>
<svg baseProfile="tiny" height="100%" shape-rendering="crispEdges" version="1.2" width="100%" xmlns="http://www.w3.org/2000/svg" xmlns:ev="http://www.w3.org/2001/xml-events" xmlns:xlink="http://www.w3.org/1999/xlink"><defs /><g><path d="M 109.143 125.58 L 123.684 124.42999999999999 L 138.221 120.758 L 152.684 122.65899999999999 L 152.684 122.65899999999999 L 165.584 124.356 L 177.743 130.54999999999998 L 187.20499999999998 139.47899999999998 L 187.20499999999998 139.47899999999998 L 196.66699999999997 148.408 L 203.48199999999997 159.98399999999998 L 207.402 172.39 L 207.402 172.39 L 209.65499999999997 179.52599999999998 L 210.98299999999998 187.1 L 209.92 194.50599999999997 L 209.92 194.50599999999997 L 208.93499999999997 201.35099999999997 L 205.94 207.78799999999998 L 202.10199999999998 213.53999999999996 L 202.10199999999998 213.53999999999996 L 192.61299999999997 227.76899999999995 L 178.04999999999998 238.06499999999997 L 162.35899999999998 244.87099999999995 L 162.35899999999998 244.87099999999995 L 153.825 248.57399999999996 L 144.78799999999998 251.35599999999997 L 135.503 251.91599999999994 L 135.503 251.91599999999994 L 127.99799999999999 252.36699999999993 L 120.40599999999999 251.34699999999995 L 113.28799999999998 248.92999999999995 L 113.28799999999998 248.92999999999995 L 103.09199999999998 245.46599999999995 L 93.98899999999998 239.19799999999995 L 86.31999999999998 231.63699999999994 L 86.31999999999998 231.63699999999994 L 79.27099999999997 224.68299999999994 L 73.28099999999998 216.48799999999994 L 69.87299999999998 207.18999999999994 L 69.87299999999998 207.18999999999994 L 63.17999999999998 188.93299999999994 L 67.18199999999997 168.01099999999994 L 76.77899999999998 151.09599999999995 L 76.77899999999998 151.09599999999995 L 83.77199999999998 138.77299999999994 L 95.14399999999998 128.37299999999993 L 109.00399999999999 125.43399999999994 Z" fill="none" stroke="black" stroke-width="2" /><path d="M 140.843 11.852 L 152.268 23.006999999999998 L 177.30399999999997 30.951 L 190.326 40.5 L 190.326 40.5 L 204.62 24.544 L 210.72299999999998 13.774999999999999 L 228.09 1.225999999999999 L 228.09 1.225999999999999 L 227.018 21.77 L 222.673 33.911 L 214.2 52.653999999999996 L 214.2 52.653999999999996 L 230.42499999999998 56.586999999999996 L 246.05599999999998 68.71 L 262.277 72.643 L 262.277 72.643 L 247.21499999999997 84.406 L 228.63299999999998 79.037 L 209.85899999999998 82.605 L 209.85899999999998 82.605 L 206.38199999999998 98.14 L 204.19899999999998 123.459 L 205.319 139.337 L 205.319 139.337 L 195.14499999999998 125.46399999999998 L 183.66799999999998 104.77199999999999 L 180.777 87.81299999999999 L 180.777 87.81299999999999 L 161.25699999999998 86.64099999999999 L 146.113 93.41699999999999 L 127.422 99.15099999999998 L 127.422 99.15099999999998 L 134.823 87.60099999999998 L 144.641 77.60799999999998 L 156.066 70.00799999999998 L 156.066 70.00799999999998 L 157.121 69.30499999999998 L 158.275 68.51499999999999 L 158.597 67.28599999999999 L 158.597 67.28599999999999 L 158.80100000000002 66.51799999999999 L 167.05700000000002 59.06899999999999 L 166.888 58.29199999999999 L 166.888 58.29199999999999 L 162.517 37.79499999999999 L 146.734 31.956999999999987 L 140.844 11.846999999999987 Z" fill="none" stroke="black" stroke-width="2" /><path d="M 7.98 0.84 L 41.967 1.087 L 75.937 3.193 L 109.694 7.143 L 109.694 7.143 L 110.15 7.194999999999999 L 110.632 7.26 L 110.979 7.56 L 110.979 7.56 L 111.526 8.024 L 111.53 8.849 L 111.491 9.565 L 111.491 9.565 L 109.572 45.010999999999996 L 107.654 80.456 L 105.735 115.898 L 105.735 115.898 L 105.679 116.901 L 105.583 118.008 L 104.871 118.715 L 104.871 118.715 L 104.246 119.336 L 103.31299999999999 119.492 L 102.44 119.60900000000001 L 102.44 119.60900000000001 L 70.06700000000001 124.019 L 37.147999999999996 120.52900000000001 L 4.858000000000004 115.52400000000002 L 4.858000000000004 115.52400000000002 L 4.116000000000004 115.40700000000001 L 3.317000000000004 115.26400000000001 L 2.7920000000000043 114.73000000000002 L 2.7920000000000043 114.73000000000002 L 2.193000000000004 114.11800000000002 L 2.119000000000004 113.18000000000002 L 2.084000000000004 112.32500000000002 L 2.084000000000004 112.32500000000002 L 1.867000000000004 107.27700000000002 L 1.6800000000000042 102.22900000000001 L 1.4980000000000042 97.18000000000002 L 1.4980000000000042 97.18000000000002 L 0.336 65.003 L -0.814 32.578 L 4.26 0.779 L 4.26 0.779 L 5.601 1.513 L 7.207 1.7429999999999999 L 8.7 1.417 Z" fill="none" stroke="black" stroke-width="2" /></g></svg>