<?xml version="1.0" encoding="utf-8" ?>
<svg baseProfile="tiny" height="100%" shape-rendering="crispEdges" version="1.2" width="100%" xmlns="http://www.w3.org/2000/svg" xmlns:ev="http://www.w3.org/2001/xml-events" xmlns:xlink="http://www.w3.org/1999/xlink"><defs /><g><path d="M 146.281 121.36 L 143.115 108.836 L 115.678 104.65299999999999 L 82.08300000000001 110.556 L 82.08300000000001 110.556 L 81.66100000000002 111.371 L 81.24900000000001 112.175 L 80.87500000000001 112.92399999999999 L 80.87500000000001 112.92399999999999 L 78.18500000000002 118.386 L 75.74400000000001 123.59199999999998 L 72.65700000000001 128.83499999999998 L 72.65700000000001 128.83499999999998 L 70.07400000000001 133.22099999999998 L 67.34500000000001 137.57099999999997 L 63.418000000000006 140.92499999999998 L 63.418000000000006 140.92499999999998 L 58.443000000000005 145.17499999999998 L 52.745000000000005 144.963 L 47.943000000000005 140.755 L 47.943000000000005 140.755 L 44.089000000000006 137.378 L 41.313 133.119 L 38.30200000000001 129.049 L 38.30200000000001 129.049 L 37.668000000000006 128.192 L 36.37800000000001 126.24300000000001 L 35.38900000000001 124.72800000000001 L 35.38900000000001 124.72800000000001 L 12.78 134.983 L -1.262 147.868 L 1.3 158.006 L 1.3 158.006 L 4.922 172.334 L 40.312999999999995 175.746 L 80.348 165.627 L 80.348 165.627 L 120.383 155.507 L 149.902 135.68800000000002 L 146.28 121.36000000000001 L 146.28 121.36000000000001 L 146.281 121.36" fill="none" stroke="black" stroke-width="2" /><path d="M 100.572 37.631 L 99.416 31.308 L 96.674 25.558 L 92.718 20.423000000000002 L 92.718 20.423000000000002 L 87.152 13.198000000000002 L 80.142 7.8160000000000025 L 71.72500000000001 4.420000000000002 L 71.72500000000001 4.420000000000002 L 65.28800000000001 1.8230000000000017 L 58.57500000000001 0.6160000000000019 L 51.52900000000001 1.1070000000000015 L 51.52900000000001 1.1070000000000015 L 42.80400000000001 1.7150000000000016 L 34.95500000000001 4.6480000000000015 L 28.16600000000001 9.923000000000002 L 28.16600000000001 9.923000000000002 L 21.007000000000012 15.486 L 16.14500000000001 22.847 L 13.348000000000011 31.564 L 13.348000000000011 31.564 L 10.924000000000012 39.12 L 10.804000000000011 46.842 L 11.330000000000013 54.616 L 11.330000000000013 54.616 L 11.626000000000012 58.985 L 12.246000000000013 63.342 L 13.046000000000012 67.643 L 13.046000000000012 67.643 L 14.015000000000011 72.849 L 15.126000000000012 78.034 L 16.566000000000013 83.147 L 16.566000000000013 83.147 L 19.859000000000012 94.837 L 24.462000000000014 105.976 L 30.387000000000015 116.569 L 30.387000000000015 116.569 L 31.572000000000013 118.688 L 32.85200000000002 120.757 L 34.149000000000015 122.811 L 34.149000000000015 122.811 L 34.323000000000015 123.087 L 34.80300000000002 123.83200000000001 L 35.387000000000015 124.727 L 35.387000000000015 124.727 L 36.37600000000001 126.242 L 37.667000000000016 128.191 L 38.30000000000001 129.048 L 38.30000000000001 129.048 L 41.311000000000014 133.119 L 44.08700000000001 137.377 L 47.94100000000001 140.754 L 47.94100000000001 140.754 L 52.74200000000001 144.96099999999998 L 58.44100000000001 145.17399999999998 L 63.41600000000001 140.92399999999998 L 63.41600000000001 140.92399999999998 L 67.34200000000001 137.569 L 70.07200000000002 133.21999999999997 L 72.65500000000002 128.83399999999997 L 72.65500000000002 128.83399999999997 L 75.74200000000002 123.59199999999997 L 78.18300000000002 118.38599999999997 L 80.87300000000002 112.92299999999997 L 80.87300000000002 112.92299999999997 L 81.24700000000001 112.17399999999998 L 81.66000000000003 111.36999999999998 L 82.08100000000002 110.55499999999998 L 82.08100000000002 110.55499999999998 L 83.43200000000002 107.94499999999998 L 84.88700000000001 105.21599999999998 L 85.57900000000002 103.75199999999998 L 85.57900000000002 103.75199999999998 L 89.75100000000002 94.92699999999998 L 93.00000000000003 85.74699999999999 L 96.04300000000002 76.50699999999998 L 96.04300000000002 76.50699999999998 L 98.08500000000002 70.30599999999998 L 99.67000000000002 63.918999999999976 L 100.58800000000002 57.44299999999998 L 100.58800000000002 57.44299999999998 L 101.52000000000002 50.866999999999976 L 101.76800000000003 44.181999999999974 L 100.57000000000002 37.62999999999998 L 100.57000000000002 37.62999999999998 L 100.572 37.631 L 46.825 25.11 L 49.959 23.094 L 53.481 22.038999999999998 L 57.2 21.688 L 57.2 21.688 L 57.389 21.688 L 57.389 21.688 L 58.720000000000006 21.558 L 60.117000000000004 21.633 L 61.341 21.936999999999998 L 61.341 21.936999999999998 L 70.221 24.144 L 73.99 31.247 L 73.993 38.31099999999999 L 73.993 38.31099999999999 L 73.996 45.266999999999996 L 71.33999999999999 51.224999999999994 L 66.21799999999999 55.82299999999999 L 66.21799999999999 55.82299999999999 L 62.07499999999999 59.54299999999999 L 57.21799999999999 61.63099999999999 L 51.33799999999999 60.44299999999999 L 51.33799999999999 60.44299999999999 L 42.66599999999998 58.69199999999999 L 36.83999999999999 51.32799999999999 L 37.03899999999999 42.46699999999999 L 37.03899999999999 42.46699999999999 L 37.20599999999999 35.05199999999999 L 40.539999999999985 29.15299999999999 L 46.82499999999999 25.109999999999992 L 46.82499999999999 25.109999999999992 L 46.825 25.11 Z" fill="none" stroke="black" stroke-width="2" /></g></svg>