<?xml version="1.0" encoding="utf-8" ?>
<svg baseProfile="tiny" height="100%" shape-rendering="crispEdges" version="1.2" width="100%" xmlns="http://www.w3.org/2000/svg" xmlns:ev="http://www.w3.org/2001/xml-events" xmlns:xlink="http://www.w3.org/1999/xlink"><defs /><g><path d="M 40.832 126.13 L 30.922 126.03999999999999 L 24.542 124.08999999999999 L 23.132 120.1 L 23.132 120.1 L 21.852 116.46 L 24.832 111.57 L 31.142000000000003 105.97999999999999 L 31.142000000000003 105.97999999999999 L 33.402 113.14999999999999 L 36.682 119.91 L 40.832 126.13" fill="none" stroke="black" stroke-width="2" /><path d="M 204.662 68.77 L 203.172 60.78999999999999 L 200.43200000000002 53.199999999999996 L 196.642 46.17999999999999 L 196.642 46.17999999999999 L 207.262 46.10999999999999 L 214.12199999999999 48.059999999999995 L 215.59199999999998 52.21999999999999 L 215.59199999999998 52.21999999999999 L 217.052 56.379999999999995 L 212.952 62.17999999999999 L 204.66199999999998 68.77 L 204.66199999999998 68.77 L 204.662 68.77" fill="none" stroke="black" stroke-width="2" /><path d="M 204.662 68.77 L 189.68200000000002 80.69999999999999 L 161.022 95.21 L 126.81200000000001 107.28 L 126.81200000000001 107.28 L 91.87200000000001 119.6 L 59.84200000000001 126.3 L 40.83200000000001 126.13 L 40.83200000000001 126.13 L 36.68200000000001 119.91 L 33.40200000000001 113.14999999999999 L 31.14200000000001 105.97999999999999 L 31.14200000000001 105.97999999999999 L 30.23200000000001 103.07999999999998 L 29.48200000000001 100.10999999999999 L 28.91200000000001 97.07999999999998 L 28.91200000000001 97.07999999999998 L 28.05200000000001 92.47999999999999 L 27.60200000000001 87.74999999999999 L 27.60200000000001 82.91999999999999 L 27.60200000000001 82.91999999999999 L 27.602 37.4 L 67.532 0.5 L 116.792 0.5 L 116.792 0.5 L 148.152 0.5 L 175.732 15.46 L 191.632 38.09 L 191.632 38.09 L 193.46200000000002 40.690000000000005 L 195.132 43.39 L 196.642 46.18000000000001 L 196.642 46.18000000000001 L 200.432 53.2 L 203.172 60.790000000000006 L 204.662 68.77000000000001 L 204.662 68.77000000000001 L 204.662 68.77" fill="none" stroke="black" stroke-width="2" /><path d="M 205.922 85.76 L 204.302 129.97 L 165.022 165.35000000000002 L 116.792 165.35000000000002 L 116.792 165.35000000000002 L 91.362 165.35000000000002 L 68.422 155.51000000000002 L 52.182 139.74 L 52.182 139.74 L 74.662 136.85000000000002 L 102.592 130.04000000000002 L 132.042 119.65 L 132.042 119.65 L 161.022 109.43 L 186.692 97.44 L 205.922 85.76" fill="none" stroke="black" stroke-width="2" /><path d="M 205.922 85.76 L 186.692 97.44 L 161.022 109.43 L 132.042 119.65 L 132.042 119.65 L 102.592 130.04000000000002 L 74.662 136.85 L 52.182 139.74 L 52.182 139.74 L 23.962000000000003 143.37 L 4.312000000000005 140.83 L 0.9920000000000044 131.41 L 0.9920000000000044 131.41 L -2.0079999999999956 122.89 L 8.892000000000005 110.39 L 28.912000000000006 97.08 L 28.912000000000006 97.08 L 29.482000000000006 100.11 L 30.232000000000006 103.08 L 31.142000000000007 105.98 L 31.142000000000007 105.98 L 24.832000000000008 111.57000000000001 L 21.852000000000007 116.46000000000001 L 23.132000000000005 120.10000000000001 L 23.132000000000005 120.10000000000001 L 24.542000000000005 124.09 L 30.922000000000004 126.04 L 40.83200000000001 126.13000000000001 L 40.83200000000001 126.13000000000001 L 59.84200000000001 126.30000000000001 L 91.87200000000001 119.60000000000001 L 126.81200000000001 107.28 L 126.81200000000001 107.28 L 161.02200000000002 95.21000000000001 L 189.68200000000002 80.7 L 204.662 68.77000000000001 L 204.662 68.77000000000001 L 212.952 62.18000000000001 L 217.05200000000002 56.38000000000001 L 215.592 52.22000000000001 L 215.592 52.22000000000001 L 214.122 48.06000000000002 L 207.262 46.110000000000014 L 196.64200000000002 46.180000000000014 L 196.64200000000002 46.180000000000014 L 195.13200000000003 43.390000000000015 L 193.46200000000002 40.69000000000001 L 191.63200000000003 38.09000000000002 L 191.63200000000003 38.09000000000002 L 219.13200000000003 34.710000000000015 L 238.20200000000003 37.320000000000014 L 241.47200000000004 46.59000000000002 L 241.47200000000004 46.59000000000002 L 244.84200000000004 56.13000000000002 L 230.74200000000005 70.68000000000002 L 205.92200000000003 85.76000000000002 L 205.92200000000003 85.76000000000002 L 205.922 85.76" fill="none" stroke="black" stroke-width="2" /></g></svg>